<svg width="17" height="16" viewBox="0 0 17 16" fill="none" xmlns="http://www.w3.org/2000/svg">
<g id="ic_arrow_next">
<path id="Vector" d="M14.9733 7.52687L10.9733 3.52687C10.8477 3.40134 10.6775 3.33081 10.4999 3.33081C10.3224 3.33081 10.1521 3.40134 10.0266 3.52687C9.90105 3.65241 9.83052 3.82267 9.83052 4.00021C9.83052 4.17774 9.90105 4.348 10.0266 4.47354L12.8933 7.33354H2.49992C2.32311 7.33354 2.15354 7.40378 2.02851 7.5288C1.90349 7.65382 1.83325 7.82339 1.83325 8.0002C1.83325 8.17702 1.90349 8.34658 2.02851 8.47161C2.15354 8.59663 2.32311 8.66687 2.49992 8.66687H12.8933L10.0266 11.5269C9.9641 11.5888 9.9145 11.6626 9.88066 11.7438C9.84681 11.8251 9.82939 11.9122 9.82939 12.0002C9.82939 12.0882 9.84681 12.1753 9.88066 12.2566C9.9145 12.3378 9.9641 12.4116 10.0266 12.4735C10.0886 12.536 10.1623 12.5856 10.2435 12.6195C10.3248 12.6533 10.4119 12.6707 10.4999 12.6707C10.5879 12.6707 10.6751 12.6533 10.7563 12.6195C10.8375 12.5856 10.9113 12.536 10.9733 12.4735L14.9733 8.47354C15.0357 8.41156 15.0853 8.33783 15.1192 8.25659C15.153 8.17535 15.1705 8.08821 15.1705 8.0002C15.1705 7.9122 15.153 7.82506 15.1192 7.74382C15.0853 7.66258 15.0357 7.58885 14.9733 7.52687Z" fill="white"/>
</g>
</svg>
