<svg width="18" height="18" viewBox="0 0 18 18" fill="none" xmlns="http://www.w3.org/2000/svg">
<g id="Icon">
<path id="Vector" d="M4 0C1.79 0 0 1.79 0 4C0 6.21 1.79 8 4 8H7C7.55 8 8 7.55 8 7V4C8 1.79 6.21 0 4 0ZM7 10H4C1.79 10 0 11.79 0 14C0 16.21 1.79 18 4 18C6.21 18 8 16.21 8 14V11C8 10.45 7.55 10 7 10ZM14 10C11.79 10 10 11.79 10 14C10 16.21 11.79 18 14 18C16.21 18 18 16.21 18 14C18 11.79 16.21 10 14 10ZM14 16C12.9 16 12 15.1 12 14C12 12.9 12.9 12 14 12C15.1 12 16 12.9 16 14C16 15.1 15.1 16 14 16ZM11 8H14C16.21 8 18 6.21 18 4C18 1.79 16.21 0 14 0C11.79 0 10 1.79 10 4V7C10 7.55 10.45 8 11 8Z" fill="#1ECCB0"/>
</g>
</svg>
