<svg width="24" height="24" viewBox="0 0 24 24" fill="none" xmlns="http://www.w3.org/2000/svg">
<g id="Swap me">
<path id="Vector" d="M14.9999 20C14.8683 20.0008 14.7379 19.9755 14.616 19.9258C14.4942 19.876 14.3834 19.8027 14.2899 19.71L7.28994 12.71C7.19621 12.617 7.12182 12.5064 7.07105 12.3846C7.02028 12.2627 6.99414 12.132 6.99414 12C6.99414 11.868 7.02028 11.7373 7.07105 11.6154C7.12182 11.4936 7.19621 11.383 7.28994 11.29L14.2899 4.29C14.3832 4.19676 14.4939 4.1228 14.6157 4.07234C14.7375 4.02188 14.8681 3.99591 14.9999 3.99591C15.1318 3.99591 15.2624 4.02188 15.3842 4.07234C15.506 4.1228 15.6167 4.19676 15.7099 4.29C15.8032 4.38324 15.8771 4.49393 15.9276 4.61575C15.9781 4.73758 16.004 4.86814 16.004 5C16.004 5.13186 15.9781 5.26243 15.9276 5.38425C15.8771 5.50607 15.8032 5.61676 15.7099 5.71L9.40994 12L15.7099 18.29C15.8037 18.383 15.8781 18.4936 15.9288 18.6154C15.9796 18.7373 16.0057 18.868 16.0057 19C16.0057 19.132 15.9796 19.2627 15.9288 19.3846C15.8781 19.5064 15.8037 19.617 15.7099 19.71C15.6165 19.8027 15.5057 19.876 15.3838 19.9258C15.262 19.9755 15.1315 20.0008 14.9999 20Z" fill="#08332C"/>
</g>
</svg>
