<svg width="24" height="24" viewBox="0 0 24 24" fill="none" xmlns="http://www.w3.org/2000/svg">
<rect width="24" height="24" rx="12" fill="black" fill-opacity="0.24"/>
<path d="M18.4733 11.5269L14.4733 7.52687C14.3478 7.40134 14.1775 7.33081 14 7.33081C13.8225 7.33081 13.6522 7.40134 13.5267 7.52687C13.4011 7.65241 13.3306 7.82267 13.3306 8.0002C13.3306 8.17774 13.4011 8.348 13.5267 8.47354L16.3933 11.3335H6.00001C5.8232 11.3335 5.65363 11.4038 5.52861 11.5288C5.40358 11.6538 5.33334 11.8234 5.33334 12.0002C5.33334 12.177 5.40358 12.3466 5.52861 12.4716C5.65363 12.5966 5.8232 12.6669 6.00001 12.6669H16.3933L13.5267 15.5269C13.4642 15.5888 13.4146 15.6626 13.3807 15.7438C13.3469 15.8251 13.3295 15.9122 13.3295 16.0002C13.3295 16.0882 13.3469 16.1753 13.3807 16.2566C13.4146 16.3378 13.4642 16.4116 13.5267 16.4735C13.5887 16.536 13.6624 16.5856 13.7436 16.6195C13.8249 16.6533 13.912 16.6707 14 16.6707C14.088 16.6707 14.1752 16.6533 14.2564 16.6195C14.3376 16.5856 14.4114 16.536 14.4733 16.4735L18.4733 12.4735C18.5358 12.4116 18.5854 12.3378 18.6193 12.2566C18.6531 12.1753 18.6705 12.0882 18.6705 12.0002C18.6705 11.9122 18.6531 11.8251 18.6193 11.7438C18.5854 11.6626 18.5358 11.5888 18.4733 11.5269Z" fill="white"/>
</svg>
