<svg width="25" height="24" viewBox="0 0 25 24" fill="none" xmlns="http://www.w3.org/2000/svg">
<g id="Swap me">
<path id="Vector" d="M12.1632 5.82956L12.5001 6.13692L12.8371 5.82956C13.7348 5.01065 14.8954 4.53924 16.1098 4.5001C16.7552 4.49599 17.395 4.62049 17.9918 4.86634C18.5905 5.11294 19.1338 5.47667 19.5899 5.93616C20.046 6.39566 20.4057 6.94166 20.6479 7.5421C20.8901 8.14254 21.0098 8.78531 21.0002 9.43268L21.0001 9.43268V9.44015C21.0001 10.9797 20.4004 12.4838 19.2128 14.1372C18.0214 15.7958 16.2649 17.5686 14.0042 19.6398C14.0036 19.6403 14.003 19.6409 14.0024 19.6415L13.516 20.0781L13.516 20.0781L13.5126 20.0812C13.2361 20.3342 12.8749 20.4745 12.5001 20.4745C12.1256 20.4745 11.7647 20.3344 11.4883 20.0819C11.4881 20.0817 11.4878 20.0815 11.4876 20.0812L10.9983 19.6319L10.997 19.6307C8.73565 17.569 6.97875 15.8008 5.78736 14.1433C4.60011 12.4916 4.00011 10.9849 4.00011 9.44015H4.00017L4.00006 9.43268C3.99037 8.78531 4.11014 8.14254 4.35231 7.5421C4.59449 6.94166 4.9542 6.39566 5.41032 5.93617C5.86643 5.47667 6.40976 5.11294 7.00839 4.86634C7.60522 4.62048 8.24503 4.49599 8.89046 4.5001C10.1048 4.53924 11.2654 5.01065 12.1632 5.82956Z" fill="#F5F5F5" fill-opacity="0.2" stroke="white"/>
</g>
</svg>
