<svg width="24" height="25" viewBox="0 0 24 25" fill="none" xmlns="http://www.w3.org/2000/svg">
<rect y="0.971954" width="24" height="24" rx="12" fill="#58DAC5"/>
<path d="M16.0677 12.6746L13.5542 10.1611C13.4753 10.0822 13.3683 10.0379 13.2567 10.0379C13.1452 10.0379 13.0382 10.0822 12.9593 10.1611C12.8804 10.24 12.8361 10.3469 12.8361 10.4585C12.8361 10.5701 12.8804 10.6771 12.9593 10.7559L14.7607 12.5531H8.22971C8.11861 12.5531 8.01205 12.5972 7.93349 12.6758C7.85493 12.7544 7.81079 12.8609 7.81079 12.972C7.81079 13.0831 7.85493 13.1897 7.93349 13.2682C8.01205 13.3468 8.11861 13.3909 8.22971 13.3909H14.7607L12.9593 15.1881C12.92 15.227 12.8889 15.2734 12.8676 15.3244C12.8463 15.3755 12.8354 15.4302 12.8354 15.4855C12.8354 15.5408 12.8463 15.5956 12.8676 15.6466C12.8889 15.6977 12.92 15.744 12.9593 15.783C12.9982 15.8222 13.0446 15.8534 13.0956 15.8747C13.1467 15.8959 13.2014 15.9069 13.2567 15.9069C13.312 15.9069 13.3668 15.8959 13.4178 15.8747C13.4689 15.8534 13.5152 15.8222 13.5542 15.783L16.0677 13.2695C16.1069 13.2305 16.1381 13.1842 16.1594 13.1331C16.1806 13.0821 16.1916 13.0273 16.1916 12.972C16.1916 12.9167 16.1806 12.862 16.1594 12.8109C16.1381 12.7599 16.1069 12.7135 16.0677 12.6746Z" fill="#1A413B"/>
</svg>
