<svg width="20" height="20" viewBox="0 0 20 20" fill="none" xmlns="http://www.w3.org/2000/svg">
<g id="ic_home">
<path id="Vector" d="M17.8919 7.75848L11.5419 2.25015C11.1158 1.87516 10.5677 1.6683 10.0002 1.6683C9.43264 1.6683 8.88455 1.87516 8.45852 2.25015L2.10852 7.75848C1.91475 7.92451 1.77525 8.14486 1.70807 8.39102C1.64089 8.63719 1.64912 8.89786 1.73169 9.1393C1.81427 9.38074 1.96739 9.59185 2.17125 9.74532C2.37511 9.89879 2.62033 9.98756 2.87519 10.0001H3.33352V15.8335C3.33352 16.4965 3.59691 17.1324 4.06576 17.6013C4.5346 18.0701 5.17048 18.3335 5.83352 18.3335H8.33352V13.3335H11.6669V18.3335H14.1669C14.8299 18.3335 15.4658 18.0701 15.9346 17.6013C16.4035 17.1324 16.6669 16.4965 16.6669 15.8335V10.0001H17.1252C17.38 9.98756 17.6253 9.89879 17.8291 9.74532C18.033 9.59185 18.1861 9.38074 18.2687 9.1393C18.3513 8.89786 18.3595 8.63719 18.2923 8.39102C18.2251 8.14486 18.0856 7.92451 17.8919 7.75848V7.75848Z" fill="#B5B5B5"/>
</g>
</svg>
