<svg width="20" height="20" viewBox="0 0 20 20" fill="none" xmlns="http://www.w3.org/2000/svg">
<g id="ic_profile_male">
<path id="Vector" d="M8.98325 9.03334C9.62556 9.21341 10.3042 9.21928 10.9496 9.05035C11.5949 8.88141 12.1836 8.54376 12.6553 8.07207C13.127 7.60038 13.4647 7.01164 13.6336 6.36631C13.8025 5.72098 13.7967 5.04232 13.6166 4.40001C13.4459 3.77836 13.1165 3.2118 12.6606 2.75596C12.2048 2.30013 11.6382 1.97069 11.0166 1.80001C10.3743 1.61994 9.69561 1.61407 9.05028 1.78301C8.40495 1.95194 7.81622 2.28959 7.34452 2.76128C6.87283 3.23297 6.53518 3.82171 6.36625 4.46704C6.19731 5.11237 6.20318 5.79103 6.38325 6.43334C6.55393 7.05499 6.88337 7.62155 7.3392 8.07739C7.79504 8.53323 8.36161 8.86266 8.98325 9.03334ZM9.99992 10C8.23181 10 6.53612 10.7024 5.28587 11.9526C4.03563 13.2029 3.33325 14.8986 3.33325 16.6667C3.33325 17.1087 3.50885 17.5326 3.82141 17.8452C4.13397 18.1577 4.55789 18.3333 4.99992 18.3333H14.9999C15.4419 18.3333 15.8659 18.1577 16.1784 17.8452C16.491 17.5326 16.6666 17.1087 16.6666 16.6667C16.6666 14.8986 15.9642 13.2029 14.714 11.9526C13.4637 10.7024 11.768 10 9.99992 10Z" fill="#B5B5B5"/>
</g>
</svg>
