<svg width="21" height="20" viewBox="0 0 21 20" fill="none" xmlns="http://www.w3.org/2000/svg">
<g id="ic_video_size">
<path id="Vector" d="M6.33342 16.6667H4.66675C4.44573 16.6667 4.23377 16.5789 4.07749 16.4226C3.92121 16.2663 3.83341 16.0543 3.83341 15.8333V14.1667C3.83341 13.9456 3.74562 13.7337 3.58934 13.5774C3.43306 13.4211 3.2211 13.3333 3.00008 13.3333C2.77907 13.3333 2.56711 13.4211 2.41083 13.5774C2.25455 13.7337 2.16675 13.9456 2.16675 14.1667V15.8333C2.16675 16.4964 2.43014 17.1322 2.89898 17.6011C3.36782 18.0699 4.00371 18.3333 4.66675 18.3333H6.33342C6.55443 18.3333 6.76639 18.2455 6.92267 18.0892C7.07895 17.933 7.16675 17.721 7.16675 17.5C7.16675 17.279 7.07895 17.067 6.92267 16.9107C6.76639 16.7545 6.55443 16.6667 6.33342 16.6667ZM10.5001 4.16666C9.34636 4.16666 8.21854 4.50878 7.25926 5.14975C6.29997 5.79073 5.5523 6.70177 5.11078 7.76767C4.66927 8.83357 4.55375 10.0065 4.77883 11.138C5.00391 12.2696 5.55949 13.309 6.37529 14.1248C7.1911 14.9406 8.2305 15.4962 9.36205 15.7212C10.4936 15.9463 11.6665 15.8308 12.7324 15.3893C13.7983 14.9478 14.7093 14.2001 15.3503 13.2408C15.9913 12.2815 16.3334 11.1537 16.3334 9.99999C16.3334 8.45289 15.7188 6.96916 14.6249 5.8752C13.5309 4.78124 12.0472 4.16666 10.5001 4.16666ZM12.2751 10.575L10.1917 11.9667C10.0777 12.0412 9.94469 12.0817 9.80841 12.0833C9.69202 12.0844 9.57728 12.0557 9.47508 12C9.36467 11.9412 9.27226 11.8536 9.2077 11.7465C9.14313 11.6394 9.10882 11.5167 9.10842 11.3917V8.60832C9.11032 8.48304 9.14582 8.36056 9.21121 8.25368C9.2766 8.14679 9.36948 8.05942 9.48016 8.00068C9.59083 7.94193 9.71525 7.91397 9.84042 7.91972C9.96558 7.92546 10.0869 7.96469 10.1917 8.03332L12.2751 9.42499C12.3696 9.48819 12.4471 9.57373 12.5007 9.67402C12.5543 9.77431 12.5823 9.88628 12.5823 9.99999C12.5823 10.1137 12.5543 10.2257 12.5007 10.326C12.4471 10.4263 12.3696 10.5118 12.2751 10.575ZM16.3334 1.66666H14.6667C14.4457 1.66666 14.2338 1.75445 14.0775 1.91073C13.9212 2.06701 13.8334 2.27898 13.8334 2.49999C13.8334 2.721 13.9212 2.93297 14.0775 3.08925C14.2338 3.24553 14.4457 3.33332 14.6667 3.33332H16.3334C16.5544 3.33332 16.7664 3.42112 16.9227 3.5774C17.079 3.73368 17.1667 3.94564 17.1667 4.16666V5.83332C17.1667 6.05434 17.2545 6.2663 17.4108 6.42258C17.5671 6.57886 17.7791 6.66666 18.0001 6.66666C18.2211 6.66666 18.4331 6.57886 18.5893 6.42258C18.7456 6.2663 18.8334 6.05434 18.8334 5.83332V4.16666C18.8334 3.50362 18.57 2.86773 18.1012 2.39889C17.6323 1.93005 16.9965 1.66666 16.3334 1.66666Z" fill="#B5B5B5"/>
</g>
</svg>
