<svg width="21" height="20" viewBox="0 0 21 20" fill="none" xmlns="http://www.w3.org/2000/svg">
<g id="ic_webseries">
<path id="Vector" d="M6.33342 3.33332H14.6667C14.8878 3.33332 15.0997 3.24553 15.256 3.08925C15.4123 2.93297 15.5001 2.721 15.5001 2.49999C15.5001 2.27898 15.4123 2.06701 15.256 1.91073C15.0997 1.75445 14.8878 1.66666 14.6667 1.66666H6.33342C6.1124 1.66666 5.90044 1.75445 5.74416 1.91073C5.58788 2.06701 5.50008 2.27898 5.50008 2.49999C5.50008 2.721 5.58788 2.93297 5.74416 3.08925C5.90044 3.24553 6.1124 3.33332 6.33342 3.33332ZM4.66675 6.66666H16.3334C16.5544 6.66666 16.7664 6.57886 16.9227 6.42258C17.079 6.2663 17.1667 6.05434 17.1667 5.83332C17.1667 5.61231 17.079 5.40035 16.9227 5.24407C16.7664 5.08779 16.5544 4.99999 16.3334 4.99999H4.66675C4.44573 4.99999 4.23377 5.08779 4.07749 5.24407C3.92121 5.40035 3.83341 5.61231 3.83341 5.83332C3.83341 6.05434 3.92121 6.2663 4.07749 6.42258C4.23377 6.57886 4.44573 6.66666 4.66675 6.66666ZM16.3334 8.33332H4.66675C4.00371 8.33332 3.36782 8.59672 2.89898 9.06556C2.43014 9.5344 2.16675 10.1703 2.16675 10.8333V15.8333C2.16675 16.4964 2.43014 17.1322 2.89898 17.6011C3.36782 18.0699 4.00371 18.3333 4.66675 18.3333H16.3334C16.9965 18.3333 17.6323 18.0699 18.1012 17.6011C18.57 17.1322 18.8334 16.4964 18.8334 15.8333V10.8333C18.8334 10.1703 18.57 9.5344 18.1012 9.06556C17.6323 8.59672 16.9965 8.33332 16.3334 8.33332ZM12.6251 14.025L10.1251 15.6917C9.99975 15.7742 9.85445 15.8214 9.70454 15.8282C9.55462 15.835 9.40565 15.8012 9.27335 15.7303C9.14105 15.6595 9.03034 15.5542 8.95291 15.4257C8.87547 15.2971 8.83419 15.1501 8.83342 15V11.6667C8.83382 11.5159 8.87511 11.3681 8.95289 11.2389C9.03066 11.1098 9.14202 11.0042 9.27508 10.9333C9.40539 10.8664 9.55104 10.835 9.69734 10.8424C9.84364 10.8497 9.98543 10.8954 10.1084 10.975L12.6084 12.6417C12.7219 12.7179 12.8148 12.8208 12.8791 12.9415C12.9433 13.0621 12.9769 13.1967 12.9769 13.3333C12.9769 13.47 12.9433 13.6046 12.8791 13.7252C12.8148 13.8458 12.7219 13.9488 12.6084 14.025H12.6251Z" fill="#B5B5B5"/>
</g>
</svg>
