<svg width="11" height="11" viewBox="0 0 11 11" fill="none" xmlns="http://www.w3.org/2000/svg">
<g id="ic_arrow_next">
<path id="Vector" d="M9.56768 5.67462L7.05417 3.1611C6.97529 3.08222 6.8683 3.0379 6.75674 3.0379C6.64518 3.0379 6.53819 3.08222 6.4593 3.1611C6.38042 3.23999 6.3361 3.34698 6.3361 3.45854C6.3361 3.57009 6.38042 3.67708 6.4593 3.75597L8.26066 5.55313H1.72971C1.61861 5.55313 1.51205 5.59727 1.43349 5.67583C1.35493 5.75439 1.31079 5.86094 1.31079 5.97205C1.31079 6.08315 1.35493 6.18971 1.43349 6.26827C1.51205 6.34683 1.61861 6.39097 1.72971 6.39097H8.26066L6.4593 8.18813C6.42004 8.22707 6.38888 8.27341 6.36761 8.32446C6.34634 8.3755 6.33539 8.43026 6.33539 8.48556C6.33539 8.54086 6.34634 8.59562 6.36761 8.64667C6.38888 8.69772 6.42004 8.74405 6.4593 8.78299C6.49825 8.82226 6.54458 8.85343 6.59563 8.87469C6.64668 8.89596 6.70144 8.90691 6.75674 8.90691C6.81204 8.90691 6.86679 8.89596 6.91784 8.87469C6.96889 8.85343 7.01523 8.82226 7.05417 8.78299L9.56768 6.26948C9.60695 6.23054 9.63811 6.1842 9.65938 6.13316C9.68065 6.08211 9.6916 6.02735 9.6916 5.97205C9.6916 5.91675 9.68065 5.86199 9.65938 5.81094C9.63811 5.75989 9.60695 5.71356 9.56768 5.67462Z" fill="#1A413B"/>
</g>
</svg>
